<svg width="380" height="392" viewBox="0 0 380 392" fill="none" xmlns="http://www.w3.org/2000/svg">
<g style="mix-blend-mode:overlay" clip-path="url(#clip0_822_73)">
<path d="M187.2 320.4H101.2L78 392H1.59998L101.2 116H189.2L288.8 392H210.4L187.2 320.4ZM144.4 179.6L118.8 264.4H170L144.4 179.6Z" fill="white"/>
<path d="M316.6 57.6L365.8 35.6L379.8 80L326.6 91.6L366.2 136.4L328.6 163.6L299 113.6L269.4 163.6L231.8 136.4L271.4 91.6L218.2 80L232.2 35.6L281.4 57.6L275.8 0H322.2L316.6 57.6Z" fill="white"/>
</g>
<g style="mix-blend-mode:overlay" clip-path="url(#clip1_822_73)">
<path d="M187.2 320.4H101.2L78 392H1.59998L101.2 116H189.2L288.8 392H210.4L187.2 320.4ZM144.4 179.6L118.8 264.4H170L144.4 179.6Z" fill="white"/>
<path d="M316.6 57.6L365.8 35.6L379.8 80L326.6 91.6L366.2 136.4L328.6 163.6L299 113.6L269.4 163.6L231.8 136.4L271.4 91.6L218.2 80L232.2 35.6L281.4 57.6L275.8 0H322.2L316.6 57.6Z" fill="white"/>
</g>
<defs>
<clipPath id="clip0_822_73">
<rect width="379.8" height="392" fill="white"/>
</clipPath>
<clipPath id="clip1_822_73">
<rect width="379.8" height="392" fill="white"/>
</clipPath>
</defs>
</svg>
