<svg width="526" height="357" viewBox="0 0 526 357" fill="none" xmlns="http://www.w3.org/2000/svg">
<path fill-rule="evenodd" clip-rule="evenodd" d="M12.3352 0.70814C10.7373 0.706119 9.15459 1.01911 7.67772 1.62922C6.20085 2.23932 4.85873 3.13456 3.72811 4.26375C2.59748 5.39295 1.70054 6.73393 1.08857 8.21004C0.476605 9.68614 0.16162 11.2684 0.161621 12.8663V214.222C0.161621 251.112 5.89488 279.855 17.3614 300.451C38.8803 338.14 79.715 356.99 139.866 357C200.016 357.01 240.774 338.161 262.139 300.451C273.606 279.875 279.339 251.132 279.339 214.222C279.416 202.894 279.262 118.586 279.339 144.408C279.647 139.383 278.923 134.348 277.212 129.613C275.501 124.878 272.839 120.544 269.39 116.877C265.94 113.209 261.777 110.287 257.156 108.289C252.534 106.291 247.553 105.261 242.518 105.261C237.484 105.261 232.503 106.291 227.881 108.289C223.26 110.287 219.096 113.209 215.647 116.877C212.198 120.544 209.536 124.878 207.825 129.613C206.114 134.348 205.39 139.383 205.698 144.408C205.698 120.83 205.698 203.063 205.698 214.222C205.698 238.087 202.87 255.508 197.213 266.482C188.401 285.952 169.316 295.686 139.958 295.686C110.426 295.686 91.2635 285.952 82.4715 266.482C76.8151 255.477 73.9869 238.057 73.9869 214.222V12.8663C73.9869 9.64178 72.7059 6.5493 70.4258 4.26919C68.1457 1.98909 65.0533 0.70814 61.8287 0.70814H12.3352ZM422.978 121.921C394.081 121.921 371.629 129.248 355.623 143.901C339.618 158.555 331.686 175.975 331.83 196.161C331.83 213.377 336.953 226.549 347.2 235.679C357.447 244.81 374.98 252.531 399.799 258.843C434.342 267.041 454.324 272.82 459.744 276.181C462.298 277.673 464.398 279.831 465.82 282.425C467.241 285.019 467.931 287.951 467.814 290.906C467.814 297.639 464.453 302.68 457.731 306.031C451.009 309.382 442.068 311.062 430.909 311.072C411.685 311.072 398.508 307.24 391.376 299.575C388.107 296.091 385.765 290.65 384.351 283.252C384.041 281.708 383.205 280.32 381.986 279.325C380.766 278.33 379.239 277.789 377.665 277.795H332.275C331.326 277.8 330.388 278.001 329.521 278.387C328.654 278.774 327.876 279.336 327.238 280.038C326.599 280.74 326.113 281.567 325.811 282.467C325.509 283.367 325.396 284.32 325.482 285.265C326.851 303.986 335.59 321.398 349.783 333.683C366.321 348.193 391.862 355.453 426.405 355.463C460.282 355.463 485.29 348.602 501.43 334.882C517.569 321.161 525.705 303.341 525.838 281.422C525.838 264.884 520.202 251.101 508.93 240.075C497.659 229.05 480.52 220.918 457.516 215.682C423.218 208.151 403.237 202.837 397.57 199.743C394.904 198.459 392.678 196.415 391.171 193.869C389.664 191.322 388.944 188.387 389.101 185.433C389.101 180.186 391.724 175.616 396.971 171.722C402.217 167.828 411.158 165.876 423.792 165.866C438.979 165.866 449.738 169.765 456.071 177.563C458.775 181.203 460.625 185.406 461.481 189.859C461.825 191.363 462.672 192.705 463.883 193.661C465.093 194.617 466.594 195.13 468.137 195.116H512.005C512.987 195.119 513.959 194.908 514.853 194.5C515.746 194.091 516.541 193.494 517.182 192.749C517.823 192.004 518.295 191.13 518.566 190.185C518.837 189.241 518.901 188.249 518.752 187.277C515.135 164.508 505.585 148.169 490.101 138.26C472.763 127.367 450.378 121.921 422.947 121.921H422.978Z" fill="white"/>
<path d="M255.606 66.6022H242.049C240.431 62.1434 239.397 57.4934 238.975 52.7687C238.176 46.1285 235.655 42.0092 230.629 41.7171C228.923 41.6403 227.386 41.6403 225.772 41.6403H218.594V66.6022H206.205V4.62774H228.831C231.83 4.58277 234.828 4.73682 237.807 5.08886C246.784 6.16481 254.069 10.8375 254.069 21.5201C254.069 29.5128 249.304 34.539 241.942 36.5987C248.09 38.9351 250.38 44.0535 251.164 50.9703C251.917 58.548 253.086 63.1592 255.606 66.6022ZM227.14 32.4179C229.292 32.4179 230.814 32.4179 232.166 32.3257C237.1 31.8799 241.066 29.4514 241.066 23.4414C241.066 17.4315 237.73 15.2642 232.889 14.634C231.16 14.4273 229.419 14.3349 227.678 14.3574H218.609V32.4179H227.14Z" fill="white"/>
<path d="M304.362 45.9441H270.424C271.223 55.9965 275.711 59.1475 281.46 59.1475C286.763 59.1475 290.682 56.1809 291.436 51.0625H303.824C301.396 62.2062 292.419 67.8626 281.199 67.8626C268.088 67.8626 257.928 59.6854 257.928 42.8853C257.928 28.2524 267.55 17.5698 282.183 17.5698C296.815 17.5698 304.501 28.6982 304.501 41.7171C304.537 43.1276 304.491 44.539 304.362 45.9441ZM270.777 37.8591H291.789C290.99 30.3121 287.578 26.285 281.645 26.285C275.711 26.285 271.853 29.9586 270.777 37.8591Z" fill="white"/>
<path d="M323.668 50.9702C323.668 52.8608 323.668 54.1212 323.76 55.3816C324.021 57.7948 325.097 58.6094 329.324 58.3328V66.8635C326.772 67.1348 324.206 67.258 321.639 67.2324C315.491 67.2324 311.679 64.9883 311.402 58.7939C311.218 56.6266 311.218 54.3825 311.218 51.2469V0.600586H323.622L323.668 50.9702Z" fill="white"/>
<path d="M361.372 68.4006C356.331 81.3273 351.135 85.462 341.39 85.462C339.529 85.4924 337.667 85.3691 335.826 85.0931V76.5624C337.049 76.7158 338.283 76.7775 339.515 76.7468C343.727 76.7468 346.524 75.1329 348.491 70.368L349.122 68.831L329.632 18.8148H343.465L355.224 57.1646L366.906 18.8302H380.462L361.372 68.4006Z" fill="white"/>
<path d="M466.231 37.6285C466.231 57.0262 454.641 69.9069 435.597 69.9069C416.553 69.9069 404.979 57.0724 404.979 37.6285C404.979 18.1846 416.476 5.3501 435.597 5.3501C454.718 5.3501 466.231 18.1385 466.231 37.6285ZM453.196 37.6285C453.196 23.0725 446.556 14.5725 435.597 14.5725C424.638 14.5725 417.905 23.011 417.905 37.6285C417.905 52.246 424.561 60.6845 435.597 60.6845C446.633 60.6845 453.196 52.0769 453.196 37.6285Z" fill="white"/>
<path d="M518.153 41.6402V68.585H505.856V43.3617C505.856 41.3943 505.856 39.1502 505.672 36.7216C505.318 31.6954 502.521 28.2831 496.449 28.2831C490.378 28.2831 485.69 33.4938 485.69 46.7279V68.5389H473.301V20.8284H485.69V28.5137L489.363 22.8573C492.724 20.511 496.767 19.3436 500.861 19.5372C511.021 19.5372 516.846 24.5634 517.845 32.9251C518.11 35.8221 518.213 38.7317 518.153 41.6402Z" fill="white"/>
</svg>
