<svg width="72" height="64" viewBox="0 0 72 64" fill="none" xmlns="http://www.w3.org/2000/svg">
<path d="M71.1897 55.0016C73.4969 59.0009 70.6008 64 65.9925 64H6.00679C1.38966 64 -1.49309 58.9931 0.809661 55.0016L30.8029 2.99813C33.1113 -1.003 38.8929 -0.995749 41.1972 2.99813L71.1897 55.0016ZM36 44.25C32.8244 44.25 30.25 46.8244 30.25 50C30.25 53.1756 32.8244 55.75 36 55.75C39.1757 55.75 41.75 53.1756 41.75 50C41.75 46.8244 39.1757 44.25 36 44.25ZM30.5409 23.5818L31.4682 40.5817C31.5115 41.3773 32.1693 42 32.9659 42H39.0342C39.8308 42 40.4885 41.3773 40.5319 40.5817L41.4592 23.5818C41.506 22.7225 40.8219 22 39.9614 22H32.0385C31.178 22 30.494 22.7225 30.5409 23.5818Z" fill="white"/>
</svg>
